<svg version="1" xmlns="http://www.w3.org/2000/svg" width="666.667" height="666.667" viewBox="0 0 500.000000 500.000000"><path d="M0 250v250h500V0H0v250zM297.2 46.7c1.7 1.5 1.8 5.1 1.8 73.3 0 68.6-.1 71.9-1.9 74.1-2.6 3.2-8.6 3.2-11.2 0-1.8-2.2-1.9-5.4-1.9-73.5 0-80.1-.4-75.6 7.2-75.6 2.5 0 4.9.7 6 1.7zm23.7 9.8c1.6.8 3.1 2.2 3.5 3 .3.9.6 25.2.6 54v52.4l-2.3 2.7c-3 3.5-7.9 3.7-11 .5l-2.2-2.2-.2-52.2c-.3-56-.3-55.9 4.7-58.4 3.2-1.6 3.5-1.6 6.9.2zm25.6 2.1c4.3 1.7 4.5 4.2 4.5 47.2 0 27.4-.4 42-1.1 44.1-1.2 3.5-5.8 6.4-8.6 5.4-1-.3-2.8-1.5-4-2.6l-2.3-2V62.9l2.5-2.4c2.4-2.4 5.7-3.1 9-1.9zm26.9 10.5l2.6 2v27.8c0 26.6-.1 27.9-2.1 30.5-3.8 4.9-11.8 2.7-13.4-3.6-.3-1.3-.5-13.9-.3-28 .3-25.6.3-25.6 2.7-28.2 3-3.2 6.9-3.4 10.5-.5zm26.4 5.2c2.1 2 2.2 2.7 2.2 18.2 0 15.8-.1 16.3-2.5 18.9-3.3 3.6-8.6 3.6-11.4 0-1.9-2.4-2.1-4-2.1-18.3 0-12.8.3-16.1 1.6-17.9 3.1-4.5 7.8-4.9 12.2-.9zm-128 7.3l2.2 2.5v42.5c0 43.5-.1 45.2-3.9 48.1-2.6 2-7 1.5-9.6-1.2l-2.5-2.4v-43.3c0-38.2.2-43.6 1.6-45.6 3.3-4.7 8.2-4.9 12.2-.6zm-26.4 1.5l2.6 2v48.7c-.1 36.7-.4 49.1-1.3 50.3-3.1 4.1-8 4.6-11.9 1.1-1.7-1.4-1.8-5.1-1.8-50.5 0-49 0-49.1 2.2-51.4 2.7-2.9 6.7-3 10.2-.2zm-24.9 19c2 1.9 2 3.4 2.3 132.1.2 114 0 130.9-1.3 136.2-8.1 32.2-41.8 51.9-73.5 43-22.2-6.3-37.8-23.8-42.5-47.6-1.9-9.6-1.3-16.6 2.6-28.5 5.2-15.9 19.8-30.6 36.2-36.3 7.7-2.7 23.7-3.8 31.8-2.1 7.7 1.6 18.2 6.9 25.2 12.5l5.7 4.7V210.8c0-95.1.2-105.6 1.6-107.6 3.1-4.5 7.9-4.9 11.9-1.1zm-25.2 27c1.5 1.8 1.7 4.4 1.7 18.6 0 16.1 0 16.4-2.5 18.8-4.7 4.8-11.7 2.1-13-4.8-.4-1.9-.5-9.6-.3-17.1l.3-13.8 2.9-2.5c3.5-2.9 8-2.6 10.9.8z"/><path d="M153 314.3c-12.4 3.5-22.5 11.8-27.8 22.7-10.9 22.4-1.9 47.7 20.7 58.4 6.2 2.9 7.3 3.1 18.1 3.1 11.1 0 11.8-.1 18.3-3.3 19.1-9.4 28.9-31.2 22.9-50.8-3.9-12.7-14.1-23.9-25.9-28.4-7.1-2.7-19.9-3.5-26.3-1.7z"/></svg>